<svg width="18" height="18" viewBox="0 0 18 18" fill="none" xmlns="http://www.w3.org/2000/svg">
<g clip-path="url(#clip0_5_6922)">
<path d="M10.6791 3.36C10.6791 3.2 10.6291 3.07 10.5291 2.97C10.4291 2.87 10.2991 2.82 10.1391 2.82H4.49906C4.33906 2.82 4.20906 2.87 4.10906 2.97C4.00906 3.07 3.95906 3.2 3.95906 3.36V7.86C3.95906 8.02 4.00906 8.16 4.10906 8.28C4.20906 8.4 4.33906 8.46 4.49906 8.46H10.1391C10.2991 8.46 10.4291 8.4 10.5291 8.28C10.6291 8.16 10.6791 8.02 10.6791 7.86V3.36ZM9.53906 7.32H5.03906V3.96H9.53906V7.32ZM17.1591 3.96L14.8791 2.88C14.7591 2.8 14.6191 2.78 14.4591 2.82C14.2991 2.86 14.1891 2.95 14.1291 3.09C14.0691 3.23 14.0591 3.38 14.0991 3.54C14.1391 3.7 14.2391 3.8 14.3991 3.84L15.2391 4.32L15.1791 4.5C15.1791 4.86 15.2891 5.18 15.5091 5.46C15.7291 5.74 15.9991 5.94 16.3191 6.06V12.9C16.3191 13.06 16.2591 13.2 16.1391 13.32C16.0191 13.44 15.8891 13.5 15.7491 13.5C15.6091 13.5 15.4791 13.44 15.3591 13.32C15.2391 13.2 15.1791 13.06 15.1791 12.9V8.4C15.1791 7.76 14.9491 7.18 14.4891 6.66C14.0291 6.14 13.5191 5.82 12.9591 5.7V2.22C12.9591 1.62 12.7391 1.1 12.2991 0.66C11.8591 0.220001 11.3391 0 10.7391 0H3.95906C3.35906 0 2.82906 0.220001 2.36906 0.66C1.90906 1.1 1.67906 1.62 1.67906 2.22V14.82L0.899062 15.24C0.659062 15.36 0.539062 15.52 0.539062 15.72V17.4C0.539062 17.56 0.599062 17.7 0.719062 17.82C0.839062 17.94 0.979062 18 1.13906 18H13.4991C13.6591 18 13.7891 17.94 13.8891 17.82C13.9891 17.7 14.0391 17.56 14.0391 17.4V15.72C14.0391 15.52 13.9391 15.36 13.7391 15.24L12.9591 14.82V6.84C13.2391 6.96 13.4891 7.17 13.7091 7.47C13.9291 7.77 14.0391 8.08 14.0391 8.4V12.9C14.0391 13.38 14.2091 13.79 14.5491 14.13C14.8891 14.47 15.2891 14.64 15.7491 14.64C16.2091 14.64 16.6091 14.47 16.9491 14.13C17.2891 13.79 17.4591 13.38 17.4591 12.9V4.5C17.4591 4.26 17.3591 4.08 17.1591 3.96ZM12.9591 16.86H1.67906V16.08L2.51906 15.66C2.71906 15.58 2.81906 15.42 2.81906 15.18V2.22C2.81906 1.94 2.92906 1.69 3.14906 1.47C3.36906 1.25 3.63906 1.14 3.95906 1.14H10.7391C11.0191 1.14 11.2691 1.25 11.4891 1.47C11.7091 1.69 11.8191 1.94 11.8191 2.22V15.18C11.8191 15.42 11.9191 15.58 12.1191 15.66L12.9591 16.08V16.86Z" fill="#050B20"/>
</g>
<defs>
<clipPath id="clip0_5_6922">
<rect width="18" height="18" fill="white" transform="matrix(1 0 0 -1 0 18)"/>
</clipPath>
</defs>
</svg>
