<svg width="18" height="18" viewBox="0 0 18 18" fill="none" xmlns="http://www.w3.org/2000/svg">
<path d="M3.00094 1.67995C2.44094 1.67995 1.96094 1.87995 1.56094 2.27995C1.16094 2.67995 0.960938 3.16995 0.960938 3.74995C0.960938 4.32995 1.16094 4.81995 1.56094 5.21995C1.96094 5.61995 2.44094 5.81995 3.00094 5.81995C3.56094 5.81995 4.04094 5.61995 4.44094 5.21995C4.84094 4.81995 5.04094 4.32995 5.04094 3.74995C5.04094 3.16995 4.84094 2.67995 4.44094 2.27995C4.04094 1.87995 3.56094 1.67995 3.00094 1.67995ZM3.00094 2.81995C3.24094 2.81995 3.46094 2.90995 3.66094 3.08995C3.86094 3.26995 3.96094 3.48995 3.96094 3.74995C3.96094 4.00995 3.86094 4.22995 3.66094 4.40995C3.46094 4.58995 3.24094 4.67995 3.00094 4.67995C2.76094 4.67995 2.54094 4.58995 2.34094 4.40995C2.14094 4.22995 2.04094 4.00995 2.04094 3.74995C2.04094 3.48995 2.14094 3.26995 2.34094 3.08995C2.54094 2.90995 2.76094 2.81995 3.00094 2.81995ZM3.00094 12.1799C2.44094 12.1799 1.96094 12.3799 1.56094 12.7799C1.16094 13.1799 0.960938 13.6699 0.960938 14.2499C0.960938 14.8299 1.16094 15.3199 1.56094 15.7199C1.96094 16.1199 2.44094 16.3199 3.00094 16.3199C3.56094 16.3199 4.04094 16.1199 4.44094 15.7199C4.84094 15.3199 5.04094 14.8299 5.04094 14.2499C5.04094 13.6699 4.84094 13.1799 4.44094 12.7799C4.04094 12.3799 3.56094 12.1799 3.00094 12.1799ZM3.00094 13.3199C3.24094 13.3199 3.46094 13.4099 3.66094 13.5899C3.86094 13.7699 3.96094 13.9899 3.96094 14.2499C3.96094 14.5099 3.86094 14.7299 3.66094 14.9099C3.46094 15.0899 3.24094 15.1799 3.00094 15.1799C2.76094 15.1799 2.54094 15.0899 2.34094 14.9099C2.14094 14.7299 2.04094 14.5099 2.04094 14.2499C2.04094 13.9899 2.14094 13.7699 2.34094 13.5899C2.54094 13.4099 2.76094 13.3199 3.00094 13.3199ZM9.00094 1.67995C8.44094 1.67995 7.96094 1.87995 7.56094 2.27995C7.16094 2.67995 6.96094 3.16995 6.96094 3.74995C6.96094 4.32995 7.16094 4.81995 7.56094 5.21995C7.96094 5.61995 8.44094 5.81995 9.00094 5.81995C9.56094 5.81995 10.0409 5.61995 10.4409 5.21995C10.8409 4.81995 11.0409 4.32995 11.0409 3.74995C11.0409 3.16995 10.8409 2.67995 10.4409 2.27995C10.0409 1.87995 9.56094 1.67995 9.00094 1.67995ZM9.00094 2.81995C9.24094 2.81995 9.46094 2.90995 9.66094 3.08995C9.86094 3.26995 9.96094 3.48995 9.96094 3.74995C9.96094 4.00995 9.86094 4.22995 9.66094 4.40995C9.46094 4.58995 9.24094 4.67995 9.00094 4.67995C8.76094 4.67995 8.54094 4.58995 8.34094 4.40995C8.14094 4.22995 8.04094 4.00995 8.04094 3.74995C8.04094 3.48995 8.14094 3.26995 8.34094 3.08995C8.54094 2.90995 8.76094 2.81995 9.00094 2.81995ZM9.00094 12.1799C8.44094 12.1799 7.96094 12.3799 7.56094 12.7799C7.16094 13.1799 6.96094 13.6699 6.96094 14.2499C6.96094 14.8299 7.16094 15.3199 7.56094 15.7199C7.96094 16.1199 8.44094 16.3199 9.00094 16.3199C9.56094 16.3199 10.0409 16.1199 10.4409 15.7199C10.8409 15.3199 11.0409 14.8299 11.0409 14.2499C11.0409 13.6699 10.8409 13.1799 10.4409 12.7799C10.0409 12.3799 9.56094 12.1799 9.00094 12.1799ZM9.00094 13.3199C9.24094 13.3199 9.46094 13.4099 9.66094 13.5899C9.86094 13.7699 9.96094 13.9899 9.96094 14.2499C9.96094 14.5099 9.86094 14.7299 9.66094 14.9099C9.46094 15.0899 9.24094 15.1799 9.00094 15.1799C8.76094 15.1799 8.54094 15.0899 8.34094 14.9099C8.14094 14.7299 8.04094 14.5099 8.04094 14.2499C8.04094 13.9899 8.14094 13.7699 8.34094 13.5899C8.54094 13.4099 8.76094 13.3199 9.00094 13.3199ZM15.0009 1.67995C14.4409 1.67995 13.9609 1.87995 13.5609 2.27995C13.1609 2.67995 12.9609 3.16995 12.9609 3.74995C12.9609 4.32995 13.1609 4.81995 13.5609 5.21995C13.9609 5.61995 14.4409 5.81995 15.0009 5.81995C15.5609 5.81995 16.0409 5.61995 16.4409 5.21995C16.8409 4.81995 17.0409 4.32995 17.0409 3.74995C17.0409 3.16995 16.8409 2.67995 16.4409 2.27995C16.0409 1.87995 15.5609 1.67995 15.0009 1.67995ZM15.0009 2.81995C15.2409 2.81995 15.4609 2.90995 15.6609 3.08995C15.8609 3.26995 15.9609 3.48995 15.9609 3.74995C15.9609 4.00995 15.8609 4.22995 15.6609 4.40995C15.4609 4.58995 15.2409 4.67995 15.0009 4.67995C14.7609 4.67995 14.5409 4.58995 14.3409 4.40995C14.1409 4.22995 14.0409 4.00995 14.0409 3.74995C14.0409 3.48995 14.1409 3.26995 14.3409 3.08995C14.5409 2.90995 14.7609 2.81995 15.0009 2.81995ZM15.0009 12.1799C14.4409 12.1799 13.9609 12.3799 13.5609 12.7799C13.1609 13.1799 12.9609 13.6699 12.9609 14.2499C12.9609 14.8299 13.1609 15.3199 13.5609 15.7199C13.9609 16.1199 14.4409 16.3199 15.0009 16.3199C15.5609 16.3199 16.0409 16.1199 16.4409 15.7199C16.8409 15.3199 17.0409 14.8299 17.0409 14.2499C17.0409 13.6699 16.8409 13.1799 16.4409 12.7799C16.0409 12.3799 15.5609 12.1799 15.0009 12.1799ZM15.0009 13.3199C15.2409 13.3199 15.4609 13.4099 15.6609 13.5899C15.8609 13.7699 15.9609 13.9899 15.9609 14.2499C15.9609 14.5099 15.8609 14.7299 15.6609 14.9099C15.4609 15.0899 15.2409 15.1799 15.0009 15.1799C14.7609 15.1799 14.5409 15.0899 14.3409 14.9099C14.1409 14.7299 14.0409 14.5099 14.0409 14.2499C14.0409 13.9899 14.1409 13.7699 14.3409 13.5899C14.5409 13.4099 14.7609 13.3199 15.0009 13.3199ZM2.46094 5.21995V12.7199C2.46094 12.8799 2.51094 13.0199 2.61094 13.1399C2.71094 13.2599 2.84094 13.3199 3.00094 13.3199C3.16094 13.3199 3.29094 13.2599 3.39094 13.1399C3.49094 13.0199 3.54094 12.8999 3.54094 12.7799V5.21995C3.54094 5.09995 3.49094 4.97995 3.39094 4.85995C3.29094 4.73995 3.16094 4.67995 3.00094 4.67995C2.84094 4.67995 2.71094 4.73995 2.61094 4.85995C2.51094 4.97995 2.46094 5.09995 2.46094 5.21995ZM8.46094 5.21995V12.7199C8.46094 12.8799 8.51094 13.0199 8.61094 13.1399C8.71094 13.2599 8.84094 13.3199 9.00094 13.3199C9.16094 13.3199 9.29094 13.2599 9.39094 13.1399C9.49094 13.0199 9.54094 12.8999 9.54094 12.7799V5.21995C9.54094 5.09995 9.49094 4.97995 9.39094 4.85995C9.29094 4.73995 9.16094 4.67995 9.00094 4.67995C8.84094 4.67995 8.71094 4.73995 8.61094 4.85995C8.51094 4.97995 8.46094 5.09995 8.46094 5.21995ZM14.4609 5.21995V8.21995C14.4609 8.29995 14.4409 8.35995 14.4009 8.39995C14.3609 8.43995 14.3209 8.45995 14.2809 8.45995H3.00094C2.84094 8.45995 2.71094 8.50995 2.61094 8.60995C2.51094 8.70995 2.46094 8.83995 2.46094 8.99995C2.46094 9.15995 2.51094 9.28995 2.61094 9.38995C2.71094 9.48995 2.84094 9.53995 3.00094 9.53995H14.2809C14.6409 9.53995 14.9409 9.41995 15.1809 9.17995C15.4209 8.93995 15.5409 8.61995 15.5409 8.21995V5.27995C15.5409 5.11995 15.4909 4.97995 15.3909 4.85995C15.2909 4.73995 15.1609 4.67995 15.0009 4.67995C14.8409 4.67995 14.7109 4.73995 14.6109 4.85995C14.5109 4.97995 14.4609 5.09995 14.4609 5.21995Z" fill="#050B20"/>
</svg>
