<svg width="18" height="18" viewBox="0 0 18 18" fill="none" xmlns="http://www.w3.org/2000/svg">
<g clip-path="url(#clip0_5_6919)">
<path d="M18 10.62C18 12.66 17.4 14.48 16.2 16.08C16.08 16.24 15.92 16.33 15.72 16.35C15.52 16.37 15.34 16.32 15.18 16.2C15.02 16.08 14.93 15.93 14.91 15.75C14.89 15.57 14.94 15.4 15.06 15.24C16.1 13.88 16.62 12.34 16.62 10.62C16.62 9.25996 16.28 7.99996 15.6 6.83996C14.92 5.67996 13.99 4.75996 12.81 4.07996C11.63 3.39996 10.36 3.05996 9 3.05996C7.64 3.05996 6.37 3.39996 5.19 4.07996C4.01 4.75996 3.08 5.67996 2.4 6.83996C1.72 7.99996 1.38 9.25996 1.38 10.62C1.38 12.34 1.9 13.88 2.94 15.24C3.06 15.4 3.11 15.57 3.09 15.75C3.07 15.93 2.98 16.08 2.82 16.2C2.66 16.32 2.48 16.37 2.28 16.35C2.08 16.33 1.92 16.24 1.8 16.08C0.6 14.48 0 12.66 0 10.62C0 9.01996 0.4 7.52996 1.2 6.14996C2 4.76996 3.09 3.67996 4.47 2.87996C5.85 2.07996 7.36 1.67996 9 1.67996C10.64 1.67996 12.15 2.07996 13.53 2.87996C14.91 3.67996 16 4.76996 16.8 6.14996C17.6 7.52996 18 9.01996 18 10.62ZM13.44 6.41996C13.6 6.53996 13.68 6.69996 13.68 6.89996C13.68 7.09996 13.6 7.25996 13.44 7.37996L11.16 9.71996C11.36 10.08 11.46 10.46 11.46 10.86C11.46 11.54 11.22 12.12 10.74 12.6C10.26 13.08 9.68 13.32 9 13.32C8.32 13.32 7.74 13.08 7.26 12.6C6.78 12.12 6.54 11.54 6.54 10.86C6.54 10.18 6.78 9.59996 7.26 9.11996C7.74 8.63996 8.32 8.39996 9 8.39996C9.4 8.39996 9.78 8.49996 10.14 8.69996L12.48 6.41996C12.6 6.25996 12.76 6.17996 12.96 6.17996C13.16 6.17996 13.32 6.25996 13.44 6.41996ZM10.08 10.86C10.08 10.58 9.97 10.34 9.75 10.14C9.53 9.93996 9.28 9.83996 9 9.83996C8.72 9.83996 8.47 9.93996 8.25 10.14C8.03 10.34 7.92 10.58 7.92 10.86C7.92 11.14 8.03 11.39 8.25 11.61C8.47 11.83 8.72 11.94 9 11.94C9.28 11.94 9.53 11.83 9.75 11.61C9.97 11.39 10.08 11.14 10.08 10.86Z" fill="#050B20"/>
</g>
<defs>
<clipPath id="clip0_5_6919">
<rect width="18" height="18" fill="white" transform="matrix(1 0 0 -1 0 18)"/>
</clipPath>
</defs>
</svg>
