<svg width="36" height="36" viewBox="0 0 36 36" fill="none" xmlns="http://www.w3.org/2000/svg">
<rect width="36" height="36" rx="18" fill="white"/>
<g clip-path="url(#clip0_5_6909)">
<path d="M21.4003 24C21.1603 24 20.9336 23.9333 20.7203 23.8L18.1203 22.16C18.0403 22.1067 17.9603 22.1067 17.8803 22.16L15.2803 23.8C15.0403 23.96 14.7736 24.02 14.4803 23.98C14.187 23.94 13.9336 23.8267 13.7203 23.64C13.4536 23.4 13.3203 23.0933 13.3203 22.72V13.28C13.3203 12.9333 13.447 12.6333 13.7003 12.38C13.9536 12.1267 14.2536 12 14.6003 12H21.4003C21.747 12 22.047 12.1267 22.3003 12.38C22.5536 12.6333 22.6803 12.9333 22.6803 13.28V22.72C22.6803 23.0667 22.5536 23.3667 22.3003 23.62C22.047 23.8733 21.747 24 21.4003 24ZM18.0003 21.08C18.2403 21.08 18.467 21.1467 18.6803 21.28L21.2803 22.92C21.307 22.9467 21.347 22.96 21.4003 22.96C21.4536 22.96 21.5003 22.94 21.5403 22.9C21.5803 22.86 21.6003 22.8 21.6003 22.72V13.28C21.6003 13.2 21.5803 13.14 21.5403 13.1C21.5003 13.06 21.4536 13.04 21.4003 13.04H14.6003C14.547 13.04 14.5003 13.06 14.4603 13.1C14.4203 13.14 14.4003 13.2 14.4003 13.28V22.72C14.4003 22.8 14.4336 22.8667 14.5003 22.92C14.567 22.9733 14.6403 22.9733 14.7203 22.92L17.3203 21.28C17.5336 21.1467 17.7603 21.08 18.0003 21.08Z" fill="#050B20"/>
</g>
<defs>
<clipPath id="clip0_5_6909">
<rect width="12" height="12" fill="white" transform="matrix(1 0 0 -1 12 24)"/>
</clipPath>
</defs>
</svg>



