<svg width="457" height="18" viewBox="0 0 457 18" fill="none" xmlns="http://www.w3.org/2000/svg">
<path d="M9.33333 0.875H2.66667C1.4025 0.875 0.375 1.9025 0.375 3.16667V14.8333C0.375 16.0975 1.4025 17.125 2.66667 17.125H9.33333C10.5975 17.125 11.625 16.0975 11.625 14.8333V3.16667C11.625 1.9025 10.5975 0.875 9.33333 0.875ZM10.375 14.8333C10.375 15.4075 9.9075 15.875 9.33333 15.875H2.66667C2.0925 15.875 1.625 15.4075 1.625 14.8333V3.16667C1.625 2.5925 2.0925 2.125 2.66667 2.125H9.33333C9.9075 2.125 10.375 2.5925 10.375 3.16667V14.8333ZM7.45833 4C7.45833 4.345 7.17833 4.625 6.83333 4.625H5.16667C4.82167 4.625 4.54167 4.345 4.54167 4C4.54167 3.655 4.82167 3.375 5.16667 3.375H6.83333C7.17833 3.375 7.45833 3.655 7.45833 4Z" fill="#050B20"/>
<path d="M129.178 14.6798C128.488 14.6798 127.898 14.5448 127.408 14.2748C126.918 14.0048 126.533 13.6448 126.253 13.1948C125.983 12.7448 125.818 12.2548 125.758 11.7248H127.243C127.333 12.2448 127.548 12.6448 127.888 12.9248C128.228 13.2048 128.663 13.3448 129.193 13.3448C129.923 13.3448 130.523 13.0048 130.993 12.3248C131.473 11.6348 131.728 10.5798 131.758 9.15982C131.518 9.59982 131.143 9.97482 130.633 10.2848C130.133 10.5948 129.553 10.7498 128.893 10.7498C128.303 10.7498 127.748 10.6098 127.228 10.3298C126.708 10.0498 126.288 9.65982 125.968 9.15982C125.648 8.64982 125.488 8.04982 125.488 7.35982C125.488 6.74982 125.638 6.17482 125.938 5.63482C126.238 5.09482 126.658 4.65982 127.198 4.32982C127.748 3.98982 128.398 3.81982 129.148 3.81982C129.918 3.81982 130.568 3.96482 131.098 4.25482C131.628 4.54482 132.053 4.92982 132.373 5.40982C132.693 5.88982 132.923 6.42982 133.063 7.02982C133.213 7.62982 133.288 8.24482 133.288 8.87482C133.288 10.0348 133.123 11.0498 132.793 11.9198C132.473 12.7898 132.008 13.4698 131.398 13.9598C130.788 14.4398 130.048 14.6798 129.178 14.6798ZM129.253 9.38482C129.673 9.38482 130.048 9.28982 130.378 9.09982C130.708 8.90982 130.968 8.65982 131.158 8.34982C131.358 8.02982 131.458 7.67982 131.458 7.29982C131.458 6.88982 131.358 6.52982 131.158 6.21982C130.968 5.89982 130.703 5.64982 130.363 5.46982C130.033 5.28982 129.658 5.19982 129.238 5.19982C128.818 5.19982 128.443 5.28982 128.113 5.46982C127.783 5.64982 127.518 5.89982 127.318 6.21982C127.128 6.52982 127.033 6.88482 127.033 7.28482C127.033 7.92482 127.243 8.43482 127.663 8.81482C128.083 9.19482 128.613 9.38482 129.253 9.38482Z" fill="#050B20"/>
<path d="M120.332 14.6798C119.632 14.6798 118.997 14.5548 118.427 14.3048C117.867 14.0448 117.417 13.6848 117.077 13.2248C116.747 12.7648 116.582 12.2248 116.582 11.6048C116.582 10.9748 116.757 10.4098 117.107 9.90982C117.467 9.40982 117.942 9.06982 118.532 8.88982C118.002 8.67982 117.592 8.37482 117.302 7.97482C117.012 7.56482 116.867 7.11482 116.867 6.62482C116.867 6.11482 117.002 5.64982 117.272 5.22982C117.542 4.79982 117.932 4.45982 118.442 4.20982C118.962 3.94982 119.592 3.81982 120.332 3.81982C121.072 3.81982 121.697 3.94982 122.207 4.20982C122.727 4.45982 123.122 4.79982 123.392 5.22982C123.662 5.64982 123.797 6.11482 123.797 6.62482C123.797 7.10482 123.647 7.55482 123.347 7.97482C123.057 8.38482 122.647 8.68982 122.117 8.88982C122.707 9.07982 123.177 9.42482 123.527 9.92482C123.887 10.4148 124.067 10.9748 124.067 11.6048C124.067 12.2248 123.902 12.7648 123.572 13.2248C123.242 13.6848 122.792 14.0448 122.222 14.3048C121.662 14.5548 121.032 14.6798 120.332 14.6798ZM120.332 8.37982C120.912 8.37982 121.367 8.22982 121.697 7.92982C122.037 7.62982 122.207 7.24482 122.207 6.77482C122.207 6.24482 122.042 5.83982 121.712 5.55982C121.382 5.27982 120.922 5.13982 120.332 5.13982C119.742 5.13982 119.282 5.27982 118.952 5.55982C118.622 5.83982 118.457 6.24482 118.457 6.77482C118.457 7.24482 118.622 7.62982 118.952 7.92982C119.282 8.22982 119.742 8.37982 120.332 8.37982ZM120.332 13.3298C121.052 13.3298 121.592 13.1598 121.952 12.8198C122.312 12.4698 122.492 12.0248 122.492 11.4848C122.492 10.8848 122.297 10.4248 121.907 10.1048C121.527 9.77482 121.002 9.60982 120.332 9.60982C119.662 9.60982 119.132 9.77482 118.742 10.1048C118.352 10.4248 118.157 10.8848 118.157 11.4848C118.157 12.0248 118.337 12.4698 118.697 12.8198C119.067 13.1598 119.612 13.3298 120.332 13.3298Z" fill="#050B20"/>
<path d="M109.659 14.5L113.724 5.365H108.264V4H115.359V5.155L111.324 14.5H109.659Z" fill="#050B20"/>
<path d="M99.5228 14.6798C98.7528 14.6798 98.1028 14.5348 97.5728 14.2448C97.0428 13.9548 96.6128 13.5698 96.2828 13.0898C95.9628 12.6098 95.7328 12.0698 95.5928 11.4698C95.4528 10.8698 95.3828 10.2548 95.3828 9.62482C95.3828 8.46482 95.5428 7.44982 95.8628 6.57982C96.1928 5.70982 96.6628 5.03482 97.2728 4.55482C97.8828 4.06482 98.6228 3.81982 99.4928 3.81982C100.183 3.81982 100.773 3.95482 101.263 4.22482C101.753 4.49482 102.133 4.85482 102.403 5.30482C102.683 5.75482 102.853 6.24482 102.913 6.77482H101.428C101.338 6.25482 101.123 5.85482 100.783 5.57482C100.443 5.29482 100.008 5.15482 99.4778 5.15482C98.7478 5.15482 98.1428 5.49982 97.6628 6.18982C97.1928 6.86982 96.9428 7.91982 96.9128 9.33982C97.1528 8.89982 97.5228 8.52482 98.0228 8.21482C98.5328 7.90482 99.1178 7.74982 99.7778 7.74982C100.368 7.74982 100.918 7.88982 101.428 8.16982C101.948 8.44982 102.368 8.84482 102.688 9.35482C103.018 9.85482 103.183 10.4498 103.183 11.1398C103.183 11.7498 103.033 12.3248 102.733 12.8648C102.433 13.4048 102.008 13.8448 101.458 14.1848C100.918 14.5148 100.273 14.6798 99.5228 14.6798ZM99.4328 13.2998C99.8528 13.2998 100.228 13.2098 100.558 13.0298C100.888 12.8498 101.148 12.6048 101.338 12.2948C101.528 11.9748 101.623 11.6148 101.623 11.2148C101.623 10.5748 101.413 10.0648 100.993 9.68482C100.583 9.30482 100.058 9.11482 99.4178 9.11482C98.9978 9.11482 98.6178 9.20982 98.2778 9.39982C97.9478 9.58982 97.6878 9.84482 97.4978 10.1648C97.3078 10.4748 97.2128 10.8198 97.2128 11.1998C97.2128 11.6098 97.3078 11.9748 97.4978 12.2948C97.6978 12.6048 97.9628 12.8498 98.2928 13.0298C98.6328 13.2098 99.0128 13.2998 99.4328 13.2998Z" fill="#050B20"/>
<path d="M90.0847 14.68C89.3447 14.68 88.7047 14.55 88.1647 14.29C87.6247 14.02 87.1947 13.655 86.8747 13.195C86.5647 12.725 86.3747 12.195 86.3047 11.605H87.8647C87.9647 12.105 88.2147 12.52 88.6147 12.85C89.0147 13.17 89.5097 13.33 90.0997 13.33C90.5397 13.33 90.9197 13.225 91.2397 13.015C91.5597 12.795 91.8097 12.505 91.9897 12.145C92.1697 11.785 92.2597 11.38 92.2597 10.93C92.2597 10.22 92.0597 9.655 91.6597 9.235C91.2597 8.805 90.7547 8.59 90.1447 8.59C89.6247 8.59 89.1797 8.715 88.8097 8.965C88.4397 9.205 88.1697 9.51 87.9997 9.88H86.4847L87.3847 4H93.0547V5.395H88.5847L88.0447 8.2C88.2747 7.94 88.5897 7.725 88.9897 7.555C89.3997 7.375 89.8597 7.285 90.3697 7.285C91.0797 7.285 91.6897 7.45 92.1997 7.78C92.7097 8.1 93.0997 8.535 93.3697 9.085C93.6497 9.635 93.7897 10.245 93.7897 10.915C93.7897 11.615 93.6397 12.25 93.3397 12.82C93.0397 13.39 92.6097 13.845 92.0497 14.185C91.4997 14.515 90.8447 14.68 90.0847 14.68Z" fill="#050B20"/>
<path d="M81.8627 14.5V12.4H76.5977V11.14L81.6077 4H83.4377V11.02H84.9077V12.4H83.4377V14.5H81.8627ZM78.3227 11.02H81.9527V5.755L78.3227 11.02Z" fill="#050B20"/>
<path d="M67.7812 14.6798C67.1012 14.6798 66.4812 14.5598 65.9212 14.3198C65.3712 14.0698 64.9312 13.6948 64.6012 13.1948C64.2712 12.6948 64.0962 12.0698 64.0762 11.3198H65.6512C65.6712 11.8798 65.8612 12.3548 66.2212 12.7448C66.5912 13.1248 67.1112 13.3148 67.7812 13.3148C68.4212 13.3148 68.9112 13.1398 69.2512 12.7898C69.5912 12.4298 69.7612 11.9848 69.7612 11.4548C69.7612 10.8148 69.5312 10.3398 69.0712 10.0298C68.6212 9.71982 68.0662 9.56482 67.4062 9.56482H66.6262V8.24482H67.4212C68.0112 8.24482 68.4862 8.10482 68.8462 7.82482C69.2162 7.54482 69.4012 7.14982 69.4012 6.63982C69.4012 6.20982 69.2562 5.85982 68.9662 5.58982C68.6862 5.31982 68.2862 5.18482 67.7662 5.18482C67.2262 5.18482 66.8012 5.34482 66.4912 5.66482C66.1812 5.97482 66.0112 6.36482 65.9812 6.83482H64.4062C64.4262 6.22482 64.5762 5.69482 64.8562 5.24482C65.1462 4.79482 65.5412 4.44482 66.0412 4.19482C66.5412 3.94482 67.1162 3.81982 67.7662 3.81982C68.4662 3.81982 69.0512 3.94482 69.5212 4.19482C70.0012 4.43482 70.3612 4.76482 70.6012 5.18482C70.8512 5.59482 70.9762 6.04482 70.9762 6.53482C70.9762 7.09482 70.8212 7.58482 70.5112 8.00482C70.2012 8.42482 69.7862 8.70482 69.2662 8.84482C69.8662 8.97482 70.3612 9.26982 70.7512 9.72982C71.1412 10.1798 71.3362 10.7648 71.3362 11.4848C71.3362 12.0648 71.2012 12.5998 70.9312 13.0898C70.6612 13.5698 70.2612 13.9548 69.7312 14.2448C69.2012 14.5348 68.5512 14.6798 67.7812 14.6798Z" fill="#050B20"/>
<path d="M55.627 14.4998V13.3598C56.307 12.8198 56.957 12.2748 57.577 11.7248C58.197 11.1748 58.747 10.6348 59.227 10.1048C59.717 9.56482 60.102 9.03982 60.382 8.52982C60.662 8.00982 60.802 7.50982 60.802 7.02982C60.802 6.70982 60.747 6.40982 60.637 6.12982C60.527 5.83982 60.347 5.60982 60.097 5.43982C59.847 5.25982 59.512 5.16982 59.092 5.16982C58.462 5.16982 57.987 5.36982 57.667 5.76982C57.357 6.16982 57.207 6.64982 57.217 7.20982H55.672C55.682 6.46982 55.837 5.84982 56.137 5.34982C56.447 4.84982 56.857 4.46982 57.367 4.20982C57.887 3.94982 58.472 3.81982 59.122 3.81982C60.112 3.81982 60.902 4.09982 61.492 4.65982C62.092 5.20982 62.392 5.97982 62.392 6.96982C62.392 7.55982 62.247 8.14482 61.957 8.72482C61.677 9.30482 61.307 9.86482 60.847 10.4048C60.397 10.9348 59.912 11.4348 59.392 11.9048C58.872 12.3748 58.377 12.7998 57.907 13.1798H62.707V14.4998H55.627Z" fill="#050B20"/>
<path d="M52.0544 14.5V5.8L50.3594 6.19V5.02L52.6844 4H53.7044V14.5H52.0544Z" fill="#050B20"/>
<path d="M41.612 14.68C40.872 14.68 40.232 14.55 39.692 14.29C39.152 14.02 38.722 13.655 38.402 13.195C38.092 12.725 37.902 12.195 37.832 11.605H39.392C39.492 12.105 39.742 12.52 40.142 12.85C40.542 13.17 41.037 13.33 41.627 13.33C42.067 13.33 42.447 13.225 42.767 13.015C43.087 12.795 43.337 12.505 43.517 12.145C43.697 11.785 43.787 11.38 43.787 10.93C43.787 10.22 43.587 9.655 43.187 9.235C42.787 8.805 42.282 8.59 41.672 8.59C41.152 8.59 40.707 8.715 40.337 8.965C39.967 9.205 39.697 9.51 39.527 9.88H38.012L38.912 4H44.582V5.395H40.112L39.572 8.2C39.802 7.94 40.117 7.725 40.517 7.555C40.927 7.375 41.387 7.285 41.897 7.285C42.607 7.285 43.217 7.45 43.727 7.78C44.237 8.1 44.627 8.535 44.897 9.085C45.177 9.635 45.317 10.245 45.317 10.915C45.317 11.615 45.167 12.25 44.867 12.82C44.567 13.39 44.137 13.845 43.577 14.185C43.027 14.515 42.372 14.68 41.612 14.68Z" fill="#050B20"/>
<path d="M31.0708 14.5L35.1358 5.365H29.6758V4H36.7708V5.155L32.7358 14.5H31.0708Z" fill="#050B20"/>
<path d="M21.9082 10.8098V9.47482H24.7432V6.81982H26.1232V9.47482H28.9582V10.8098H26.1232V13.4798H24.7432V10.8098H21.9082Z" fill="#050B20"/>
</svg>
