<svg width="60" height="60" viewBox="0 0 60 60" fill="none" xmlns="http://www.w3.org/2000/svg">
<g clip-path="url(#clip0_5_6856)">
<path d="M30 2.34375V7.03125" stroke="#E1E1E1" stroke-width="3" stroke-miterlimit="10" stroke-linecap="round" stroke-linejoin="round"/>
<path d="M48.75 2.34375L44.0625 7.03125" stroke="#E1E1E1" stroke-width="3" stroke-miterlimit="10" stroke-linecap="round" stroke-linejoin="round"/>
<path d="M15.4738 36.6607C14.3072 35.4056 13.5938 33.7236 13.5938 31.875C13.5938 30.7464 13.8596 29.6799 14.3323 28.7346L19.0198 19.3596C20.1732 17.0528 22.5579 15.4688 25.3125 15.4688H18.2812C15.5266 15.4688 13.142 17.0528 11.9885 19.3596L7.30102 28.7346C6.8284 29.6799 6.5625 30.7464 6.5625 31.875C6.5625 33.7236 7.27594 35.4056 8.44254 36.6607L26.5658 56.1591C27.4218 57.0802 28.6436 57.6562 30 57.6562C31.3564 57.6562 32.5782 57.0802 33.4342 56.1593L33.5156 56.0716L15.4738 36.6607Z" fill="#F9FBFC"/>
<path d="M48.0115 19.3596L52.699 28.7346C53.1716 29.6797 53.4375 30.7464 53.4375 31.875C53.4375 33.7236 52.7241 35.4057 51.5575 36.6608L33.4342 56.1593C32.5782 57.0802 31.3564 57.6562 30 57.6562C28.6436 57.6562 27.4218 57.0802 26.5658 56.1593L8.44254 36.6608C7.27594 35.4057 6.5625 33.7236 6.5625 31.875C6.5625 30.7464 6.8284 29.6797 7.30102 28.7346L11.9885 19.3596C13.142 17.0527 15.5266 15.4688 18.2812 15.4688H41.7188C44.4734 15.4688 46.858 17.0527 48.0115 19.3596Z" stroke="#050B20" stroke-width="3" stroke-miterlimit="10" stroke-linecap="round" stroke-linejoin="round"/>
<path d="M11.25 2.34375L15.9375 7.03125" stroke="#E1E1E1" stroke-width="3" stroke-miterlimit="10" stroke-linecap="round" stroke-linejoin="round"/>
<path d="M17.3848 29.5312H42.615" stroke="#050B20" stroke-width="3" stroke-miterlimit="10" stroke-linecap="round" stroke-linejoin="round"/>
<path d="M25.3125 24.8438L30 29.5312L34.6875 24.8438" stroke="#050B20" stroke-width="3" stroke-miterlimit="10" stroke-linecap="round" stroke-linejoin="round"/>
<path d="M30 43.5939V29.7307" stroke="#050B20" stroke-width="3" stroke-miterlimit="10" stroke-linecap="round" stroke-linejoin="round"/>
</g>
<defs>
<clipPath id="clip0_5_6856">
<rect width="60" height="60" fill="white"/>
</clipPath>
</defs>
</svg>
