<svg width="60" height="40" viewBox="0 0 60 40" fill="none" xmlns="http://www.w3.org/2000/svg">
<rect x="0.5" y="0.5" width="59" height="39" rx="19.5" fill="white"/>
<rect x="0.5" y="0.5" width="59" height="39" rx="19.5" stroke="#E9E9E9"/>
<g clip-path="url(#clip0_5_7028)">
<path d="M26.5605 19C26.5605 18.76 26.6539 18.56 26.8405 18.4L32.0005 13.24C32.1605 13.08 32.3539 13 32.5805 13C32.8072 13 33.0072 13.08 33.1805 13.24C33.3539 13.4 33.4405 13.6 33.4405 13.84C33.4405 14.08 33.3472 14.28 33.1605 14.44L28.6005 19L33.1605 23.56C33.3205 23.72 33.4005 23.92 33.4005 24.16C33.4005 24.4 33.3205 24.6 33.1605 24.76C33.0005 24.92 32.8072 25 32.5805 25C32.3539 25 32.1605 24.92 32.0005 24.76L26.8405 19.6C26.6539 19.44 26.5605 19.24 26.5605 19Z" fill="#050B20"/>
</g>
<defs>
<clipPath id="clip0_5_7028">
<rect width="12" height="12" fill="white" transform="matrix(1 0 0 -1 24 25)"/>
</clipPath>
</defs>
</svg>
