<svg width="60" height="40" viewBox="0 0 60 40" fill="none" xmlns="http://www.w3.org/2000/svg">
<rect x="0.5" y="0.5" width="59" height="39" rx="19.5" fill="white"/>
<rect x="0.5" y="0.5" width="59" height="39" rx="19.5" stroke="#E9E9E9"/>
<g clip-path="url(#clip0_5_7031)">
<path d="M33.1765 19.6L28.0208 24.76C27.861 24.92 27.6678 25 27.4413 25C27.2148 25 27.015 24.92 26.8418 24.76C26.6686 24.6 26.582 24.4 26.582 24.16C26.582 23.92 26.6753 23.72 26.8618 23.56L31.418 19L26.8618 14.44C26.6753 14.28 26.582 14.08 26.582 13.84C26.582 13.6 26.6686 13.4 26.8418 13.24C27.015 13.08 27.2148 13 27.4413 13C27.6678 13 27.861 13.08 28.0208 13.24L33.1765 18.4C33.363 18.56 33.4563 18.76 33.4563 19C33.4563 19.24 33.363 19.44 33.1765 19.6Z" fill="#050B20"/>
</g>
<defs>
<clipPath id="clip0_5_7031">
<rect width="11.96" height="12" fill="white" transform="matrix(1 0 0 -1 24.0195 25)"/>
</clipPath>
</defs>
</svg>
