<svg width="14" height="14" viewBox="0 0 14 14" fill="none" xmlns="http://www.w3.org/2000/svg">
<path d="M13.6111 0H5.05557C4.84061 0 4.66667 0.173943 4.66667 0.388901C4.66667 0.603859 4.84061 0.777802 5.05557 0.777802H12.6723L0.113941 13.3362C-0.0379804 13.4881 -0.0379804 13.7342 0.113941 13.8861C0.189884 13.962 0.289415 14 0.38891 14C0.488405 14 0.5879 13.962 0.663879 13.8861L13.2222 1.3277V8.94447C13.2222 9.15943 13.3961 9.33337 13.6111 9.33337C13.8261 9.33337 14 9.15943 14 8.94447V0.388901C14 0.173943 13.826 0 13.6111 0Z" fill="white"/>
</svg>
