<svg width="63" height="40" viewBox="0 0 63 40" fill="none" xmlns="http://www.w3.org/2000/svg">
<rect x="3" width="60" height="40" rx="20" fill="white" fill-opacity="0.2"/>
<path d="M34.3597 8.9601C34.733 8.53343 35.253 8.3201 35.9197 8.3201C36.5864 8.3201 37.133 8.53343 37.5597 8.9601C38.573 9.9201 38.573 10.9868 37.5597 12.1601L30.1197 20.0001L37.5597 27.7601C38.573 28.9334 38.573 30.0001 37.5597 30.9601C37.133 31.3868 36.5997 31.6001 35.9597 31.6001C35.3197 31.6001 34.7864 31.3868 34.3597 30.9601L25.3197 21.5201C24.893 21.0934 24.6797 20.5734 24.6797 19.9601C24.6797 19.3468 24.893 18.8268 25.3197 18.4001C30.813 12.6934 33.8264 9.54676 34.3597 8.9601Z" fill="white"/>
</svg>
