<svg width="118" height="26" viewBox="0 0 118 26" fill="none" xmlns="http://www.w3.org/2000/svg">
<g clip-path="url(#clip0_2106_92)">
<g clip-path="url(#clip1_2106_92)">
<g clip-path="url(#clip2_2106_92)">
<path d="M7.21039 0.500213C11.2004 0.500213 12.9154 2.35522 12.9154 6.13522V7.01022C12.9154 9.53022 12.1454 11.1402 10.4304 11.9452C12.4954 12.7502 13.3004 14.6052 13.3004 17.1952V19.1902C13.3004 22.9702 11.3054 25.0002 7.45539 25.0002H1.40039V0.500213H7.21039ZM6.96539 13.9752H5.25039V21.5002H7.45539C8.75039 21.5002 9.45039 20.9052 9.45039 19.0852V16.9502C9.45039 14.6752 8.71539 13.9752 6.96539 13.9752ZM7.10539 4.00021H5.25039V10.4752H6.75539C8.19039 10.4752 9.06539 9.84521 9.06539 7.88522V6.52022C9.06539 4.77022 8.47039 4.00021 7.10539 4.00021ZM20.9042 6.13522V19.3652C20.9042 21.1152 21.6742 21.7802 22.8992 21.7802C24.1242 21.7802 24.8942 21.1152 24.8942 19.3652V6.13522C24.8942 4.38522 24.1242 3.72021 22.8992 3.72021C21.6742 3.72021 20.9042 4.38522 20.9042 6.13522ZM17.0542 19.1202V6.38022C17.0542 2.46022 19.1192 0.220215 22.8992 0.220215C26.6792 0.220215 28.7442 2.46022 28.7442 6.38022V19.1202C28.7442 23.0402 26.6792 25.2802 22.8992 25.2802C19.1192 25.2802 17.0542 23.0402 17.0542 19.1202ZM41.7584 0.500213H45.3284L41.3034 12.4002L45.6084 25.0002H41.5484L38.3984 15.3052L35.2134 25.0002H31.6084L35.9134 12.4002L31.8884 0.500213H35.8784L38.7834 9.53021L41.7584 0.500213ZM56.2848 15.8652H59.9248V19.1202C59.9248 23.0402 57.9648 25.2802 54.1848 25.2802C50.4048 25.2802 48.4448 23.0402 48.4448 19.1202V6.38022C48.4448 2.46022 50.4048 0.220215 54.1848 0.220215C57.9648 0.220215 59.9248 2.46022 59.9248 6.38022V8.76021H56.2848V6.13522C56.2848 4.38522 55.5148 3.72021 54.2898 3.72021C53.0648 3.72021 52.2948 4.38522 52.2948 6.13522V19.3652C52.2948 21.1152 53.0648 21.7452 54.2898 21.7452C55.5148 21.7452 56.2848 21.1152 56.2848 19.3652V15.8652ZM72.5508 0.500213L76.4708 25.0002H72.5858L71.9208 20.5552H67.1958L66.5308 25.0002H62.9958L66.9158 0.500213H72.5508ZM69.5408 4.84022L67.6858 17.2302H71.3958L69.5408 4.84022ZM91.9837 25.0002H88.0637C87.8537 24.3702 87.7137 23.9852 87.7137 21.9902V18.1402C87.7137 15.8652 86.9437 15.0252 85.1937 15.0252H83.8637V25.0002H80.0137V0.500213H85.8237C89.8137 0.500213 91.5287 2.35522 91.5287 6.13522V8.06022C91.5287 10.5802 90.7237 12.2252 89.0087 13.0302C90.9337 13.8352 91.5637 15.6902 91.5637 18.2452V22.0252C91.5637 23.2152 91.5987 24.0902 91.9837 25.0002ZM85.7187 4.00021H83.8637V11.5252H85.3687C86.8037 11.5252 87.6787 10.8952 87.6787 8.93521V6.52022C87.6787 4.77022 87.0837 4.00021 85.7187 4.00021ZM95.3557 6.38022C95.3557 2.46022 97.2807 0.220215 101.025 0.220215C104.77 0.220215 106.695 2.46022 106.695 6.38022V7.15022H103.055V6.13522C103.055 4.38522 102.355 3.72021 101.13 3.72021C99.9057 3.72021 99.2057 4.38522 99.2057 6.13522C99.2057 11.1752 106.73 12.1202 106.73 19.1202C106.73 23.0402 104.77 25.2802 100.99 25.2802C97.2107 25.2802 95.2507 23.0402 95.2507 19.1202V17.6152H98.8907V19.3652C98.8907 21.1152 99.6607 21.7452 100.885 21.7452C102.11 21.7452 102.88 21.1152 102.88 19.3652C102.88 14.3252 95.3557 13.3802 95.3557 6.38022Z" fill="#050B20"/>
</g>
</g>
</g>
<defs>
<clipPath id="clip0_2106_92">
<rect width="108" height="26" fill="white"/>
</clipPath>
<clipPath id="clip1_2106_92">
<rect width="108" height="26" fill="white"/>
</clipPath>
<clipPath id="clip2_2106_92">
<rect width="108" height="26" fill="white"/>
</clipPath>
</defs>
</svg>
