<svg width="12" height="18" viewBox="0 0 12 18" fill="none" xmlns="http://www.w3.org/2000/svg">
<path d="M9.33333 0.875H2.66667C1.4025 0.875 0.375 1.9025 0.375 3.16667V14.8333C0.375 16.0975 1.4025 17.125 2.66667 17.125H9.33333C10.5975 17.125 11.625 16.0975 11.625 14.8333V3.16667C11.625 1.9025 10.5975 0.875 9.33333 0.875ZM10.375 14.8333C10.375 15.4075 9.9075 15.875 9.33333 15.875H2.66667C2.0925 15.875 1.625 15.4075 1.625 14.8333V3.16667C1.625 2.5925 2.0925 2.125 2.66667 2.125H9.33333C9.9075 2.125 10.375 2.5925 10.375 3.16667V14.8333ZM7.45833 4C7.45833 4.345 7.17833 4.625 6.83333 4.625H5.16667C4.82167 4.625 4.54167 4.345 4.54167 4C4.54167 3.655 4.82167 3.375 5.16667 3.375H6.83333C7.17833 3.375 7.45833 3.655 7.45833 4Z" fill="#050B20"/>
</svg>
