<svg width="63" height="40" viewBox="0 0 63 40" fill="none" xmlns="http://www.w3.org/2000/svg">
<rect width="60" height="40" rx="20" fill="white" fill-opacity="0.2"/>
<path d="M28.6192 8.9601L37.6592 18.4001C38.0859 18.8268 38.2992 19.3468 38.2992 19.9601C38.2992 20.5734 38.0859 21.0934 37.6592 21.5201L28.6192 30.9601C28.1926 31.3868 27.6592 31.6001 27.0192 31.6001C26.3792 31.6001 25.8459 31.3868 25.4192 30.9601C24.4592 30.0001 24.4592 28.9334 25.4192 27.7601L32.8592 20.0001L25.4192 12.1601C24.4592 10.9868 24.4592 9.9201 25.4192 8.9601C25.8459 8.53343 26.3926 8.3201 27.0592 8.3201C27.7259 8.3201 28.2459 8.53343 28.6192 8.9601Z" fill="white"/>
</svg>
