<svg width="15" height="15" viewBox="0 0 15 15" fill="none" xmlns="http://www.w3.org/2000/svg">
<g clip-path="url(#clip0_2106_171)">
<path d="M7.5 8.45C5.23333 8.45 3.5 8.96667 2.3 10C1.1 11.0333 0.5 12.5167 0.5 14.45C0.5 14.6167 0.558333 14.75 0.675 14.85C0.791667 14.95 0.916667 15 1.05 15H13.95C14.0833 15 14.2083 14.95 14.325 14.85C14.4417 14.75 14.5 14.6167 14.5 14.45C14.5 12.5167 13.9 11.0333 12.7 10C11.5 8.96667 9.76667 8.45 7.5 8.45ZM1.65 13.9C1.85 11 3.8 9.55 7.5 9.55C11.2 9.55 13.15 11 13.35 13.9H1.65ZM7.5 0C6.83333 0 6.21667 0.158333 5.65 0.474999C5.08333 0.791666 4.64167 1.23333 4.325 1.8C4.00833 2.36667 3.85 3 3.85 3.7C3.85 4.4 4.01667 5.05833 4.35 5.675C4.68333 6.29167 5.125 6.775 5.675 7.125C6.225 7.475 6.83333 7.65 7.5 7.65C8.16667 7.65 8.775 7.475 9.325 7.125C9.875 6.775 10.3167 6.29167 10.65 5.675C10.9833 5.05833 11.15 4.4 11.15 3.7C11.15 3 10.9917 2.36667 10.675 1.8C10.3583 1.23333 9.91667 0.791666 9.35 0.474999C8.78333 0.158333 8.16667 0 7.5 0ZM7.5 6.55C6.8 6.55 6.2 6.275 5.7 5.725C5.2 5.175 4.95 4.50833 4.95 3.725C4.95 2.94167 5.19167 2.30833 5.675 1.825C6.15833 1.34167 6.76667 1.1 7.5 1.1C8.23333 1.1 8.84167 1.35 9.325 1.85C9.80833 2.35 10.05 2.98333 10.05 3.75C10.05 4.51667 9.8 5.175 9.3 5.725C8.8 6.275 8.2 6.55 7.5 6.55Z" fill="#050B20"/>
</g>
<defs>
<clipPath id="clip0_2106_171">
<rect width="15" height="15" fill="white" transform="matrix(1 0 0 -1 0 15)"/>
</clipPath>
</defs>
</svg>
